<svg width="240" height="240" xmlns="http://www.w3.org/2000/svg">
 <!-- Created with Method Draw - http://github.com/duopixel/Method-Draw/ -->

 <g>
  <title>background</title>
  <rect fill="none" id="canvas_background" height="402" width="582" y="-1" x="-1"/>
 </g>
 <g>
  <title>Layer 1</title>
  <style>.st0{fill:#4a90e2}.st1{fill:#000034}</style>
  <g id="svg_9" stroke="null">
   <g id="svg_16" stroke="null">
    <path d="m229.93874,180.7637l-218.62179,0a32.79327,32.90729 0 0 0 32.79327,-32.90729l0,-54.84548a76.51763,76.78368 0 0 1 153.03525,0l0,54.84548a32.79327,32.90729 0 0 0 32.79327,32.90729zm-90.40011,43.87639a21.86218,21.93819 0 0 1 -37.82157,0" id="svg_15" stroke="null" fill="#ffffff"/>
   </g>
   <circle class="st0" cx="91.59159" cy="116.701112" r="4.095397" id="svg_5" stroke="null" fill="#ffffff"/>
   <path class="st0" d="m146.59825,95.58507c-2.5003,0 -4.61594,1.86318 -4.61594,4.2587c0,3.37147 -0.577,4.2587 -4.61595,4.2587l-0.38466,0c-2.30797,0.17744 -4.13512,1.9519 -4.13512,4.16997l0,0.08873c0,3.28274 -0.67315,4.08125 -4.61594,4.08125c-0.19233,0 -0.38466,0 -0.48083,0.08872c-2.30797,0.26617 -4.13511,2.04063 -4.13511,4.16998c0,2.30679 2.01947,4.25869 4.61594,4.25869c2.40414,0 4.42361,-1.77445 4.51978,-3.9038l0,-0.35489c0,-3.01658 1.05782,-4.16998 4.51978,-4.2587l0.09616,0c2.40414,0 4.42362,-1.77446 4.51978,-3.99253l0,-0.26617c0,-3.1053 1.05782,-4.2587 4.61594,-4.2587c2.50031,0 4.61595,-1.86318 4.61595,-4.25869c0,-2.21808 -2.01948,-4.08126 -4.51978,-4.08126zm-27.11867,8.5174l-0.38466,0c-4.03895,0 -4.61594,-0.88723 -4.61594,-4.2587c0,-2.3068 -2.01948,-4.2587 -4.61595,-4.2587c-2.5003,0 -4.61594,1.86318 -4.61594,4.2587c0,3.37147 -0.57699,4.16997 -4.61594,4.16997l-0.38467,0c-2.30797,0.17745 -4.13511,1.95191 -4.13511,4.16998c0,2.30679 2.01947,4.2587 4.61594,4.2587c2.40414,0 4.42361,-1.77446 4.51978,-3.90381l0,-0.26617c0,-3.1053 1.05782,-4.2587 4.61594,-4.2587c3.55813,0 4.61595,1.1534 4.61595,4.16998c0,2.30679 2.01947,4.2587 4.61594,4.2587s4.61594,-1.86318 4.61594,-4.2587c-0.09616,-2.12935 -1.92331,-3.90381 -4.23128,-4.08125z" id="svg_6" stroke="null" fill="#ffffff"/>
   <path fill="#ffffff" stroke-width="null" stroke-opacity="null" fill-opacity="null" opacity="0.5" d="m821.25023,-87.02333l42.81978,61.23818" id="svg_17" stroke="null"/>
  </g>
  <path fill="null" stroke="null" stroke-width="null" stroke-opacity="null" fill-opacity="null" opacity="0.5" d="m-451.56015,-194.032" id="svg_19"/>
 </g>
</svg>